<mxfile host="app.diagrams.net" agent="Mozilla/5.0 (Windows NT 10.0; Win64; x64) AppleWebKit/537.36 (KHTML, like Gecko) Chrome/128.0.0.0 Safari/537.36" version="24.7.16">
  <diagram name="Page-1" id="bIPinQTC9X3q_cNat5g4">
    <mxGraphModel dx="1687" dy="908" grid="1" gridSize="10" guides="1" tooltips="1" connect="1" arrows="1" fold="1" page="1" pageScale="1" pageWidth="850" pageHeight="1100" math="0" shadow="0">
      <root>
        <mxCell id="0" />
        <mxCell id="1" parent="0" />
        <mxCell id="n76NYFAnikeCeqhVXUen-1" value="Actor" style="shape=umlActor;verticalLabelPosition=bottom;verticalAlign=top;html=1;" vertex="1" parent="1">
          <mxGeometry x="130" y="50" width="30" height="60" as="geometry" />
        </mxCell>
        <mxCell id="n76NYFAnikeCeqhVXUen-6" value="Service" style="html=1;whiteSpace=wrap;" vertex="1" parent="1">
          <mxGeometry x="450" y="60" width="110" height="50" as="geometry" />
        </mxCell>
        <mxCell id="n76NYFAnikeCeqhVXUen-7" value="Controller" style="html=1;whiteSpace=wrap;" vertex="1" parent="1">
          <mxGeometry x="240" y="60" width="110" height="50" as="geometry" />
        </mxCell>
        <mxCell id="n76NYFAnikeCeqhVXUen-8" value="Database" style="html=1;whiteSpace=wrap;" vertex="1" parent="1">
          <mxGeometry x="670" y="55" width="110" height="50" as="geometry" />
        </mxCell>
        <mxCell id="n76NYFAnikeCeqhVXUen-9" value="" style="endArrow=none;dashed=1;html=1;dashPattern=1 3;strokeWidth=2;rounded=0;" edge="1" parent="1">
          <mxGeometry width="50" height="50" relative="1" as="geometry">
            <mxPoint x="150" y="570" as="sourcePoint" />
            <mxPoint x="150" y="140" as="targetPoint" />
            <Array as="points">
              <mxPoint x="150" y="260" />
            </Array>
          </mxGeometry>
        </mxCell>
        <mxCell id="n76NYFAnikeCeqhVXUen-11" value="" style="endArrow=none;dashed=1;html=1;dashPattern=1 3;strokeWidth=2;rounded=0;" edge="1" parent="1">
          <mxGeometry width="50" height="50" relative="1" as="geometry">
            <mxPoint x="290" y="560" as="sourcePoint" />
            <mxPoint x="290" y="140" as="targetPoint" />
          </mxGeometry>
        </mxCell>
        <mxCell id="n76NYFAnikeCeqhVXUen-12" value="" style="endArrow=none;dashed=1;html=1;dashPattern=1 3;strokeWidth=2;rounded=0;" edge="1" parent="1">
          <mxGeometry width="50" height="50" relative="1" as="geometry">
            <mxPoint x="500" y="560" as="sourcePoint" />
            <mxPoint x="500" y="130" as="targetPoint" />
          </mxGeometry>
        </mxCell>
        <mxCell id="n76NYFAnikeCeqhVXUen-13" value="" style="endArrow=none;dashed=1;html=1;dashPattern=1 3;strokeWidth=2;rounded=0;" edge="1" parent="1">
          <mxGeometry width="50" height="50" relative="1" as="geometry">
            <mxPoint x="720" y="560" as="sourcePoint" />
            <mxPoint x="720" y="120" as="targetPoint" />
          </mxGeometry>
        </mxCell>
        <mxCell id="n76NYFAnikeCeqhVXUen-14" value="Login" style="text;html=1;align=center;verticalAlign=middle;whiteSpace=wrap;rounded=0;" vertex="1" parent="1">
          <mxGeometry x="30" y="30" width="60" height="30" as="geometry" />
        </mxCell>
        <mxCell id="n76NYFAnikeCeqhVXUen-15" value="" style="endArrow=classic;html=1;rounded=0;" edge="1" parent="1">
          <mxGeometry width="50" height="50" relative="1" as="geometry">
            <mxPoint x="160" y="150" as="sourcePoint" />
            <mxPoint x="280" y="150" as="targetPoint" />
          </mxGeometry>
        </mxCell>
        <mxCell id="n76NYFAnikeCeqhVXUen-16" value="login request" style="text;html=1;align=center;verticalAlign=middle;resizable=0;points=[];autosize=1;strokeColor=none;fillColor=none;" vertex="1" parent="1">
          <mxGeometry x="175" y="118" width="90" height="30" as="geometry" />
        </mxCell>
        <mxCell id="n76NYFAnikeCeqhVXUen-17" value="" style="endArrow=classic;html=1;rounded=0;entryX=0.908;entryY=1.067;entryDx=0;entryDy=0;entryPerimeter=0;" edge="1" parent="1" target="n76NYFAnikeCeqhVXUen-18">
          <mxGeometry width="50" height="50" relative="1" as="geometry">
            <mxPoint x="400" y="260" as="sourcePoint" />
            <mxPoint x="500" y="270" as="targetPoint" />
            <Array as="points">
              <mxPoint x="460" y="260" />
            </Array>
          </mxGeometry>
        </mxCell>
        <mxCell id="n76NYFAnikeCeqhVXUen-18" value="call login function" style="text;html=1;align=center;verticalAlign=middle;resizable=0;points=[];autosize=1;strokeColor=none;fillColor=none;" vertex="1" parent="1">
          <mxGeometry x="390" y="230" width="120" height="30" as="geometry" />
        </mxCell>
        <mxCell id="n76NYFAnikeCeqhVXUen-19" value="" style="endArrow=classic;html=1;rounded=0;" edge="1" parent="1">
          <mxGeometry width="50" height="50" relative="1" as="geometry">
            <mxPoint x="510" y="270" as="sourcePoint" />
            <mxPoint x="710" y="270" as="targetPoint" />
          </mxGeometry>
        </mxCell>
        <mxCell id="n76NYFAnikeCeqhVXUen-20" value="find user" style="text;html=1;align=center;verticalAlign=middle;resizable=0;points=[];autosize=1;strokeColor=none;fillColor=none;" vertex="1" parent="1">
          <mxGeometry x="560" y="240" width="70" height="30" as="geometry" />
        </mxCell>
        <mxCell id="n76NYFAnikeCeqhVXUen-21" value="" style="html=1;verticalAlign=bottom;endArrow=open;dashed=1;endSize=8;curved=0;rounded=0;" edge="1" parent="1">
          <mxGeometry relative="1" as="geometry">
            <mxPoint x="720" y="310" as="sourcePoint" />
            <mxPoint x="510" y="310" as="targetPoint" />
          </mxGeometry>
        </mxCell>
        <mxCell id="n76NYFAnikeCeqhVXUen-22" value="not found" style="edgeLabel;html=1;align=center;verticalAlign=middle;resizable=0;points=[];" vertex="1" connectable="0" parent="n76NYFAnikeCeqhVXUen-21">
          <mxGeometry x="0.0095" y="-6" relative="1" as="geometry">
            <mxPoint as="offset" />
          </mxGeometry>
        </mxCell>
        <mxCell id="n76NYFAnikeCeqhVXUen-23" value="not found" style="html=1;verticalAlign=bottom;endArrow=open;dashed=1;endSize=8;curved=0;rounded=0;" edge="1" parent="1">
          <mxGeometry x="-0.0769" relative="1" as="geometry">
            <mxPoint x="280" y="340" as="sourcePoint" />
            <mxPoint x="150" y="340" as="targetPoint" />
            <mxPoint as="offset" />
          </mxGeometry>
        </mxCell>
        <mxCell id="n76NYFAnikeCeqhVXUen-24" value="not found" style="html=1;verticalAlign=bottom;endArrow=open;dashed=1;endSize=8;curved=0;rounded=0;" edge="1" parent="1">
          <mxGeometry relative="1" as="geometry">
            <mxPoint x="500" y="320" as="sourcePoint" />
            <mxPoint x="290" y="320" as="targetPoint" />
          </mxGeometry>
        </mxCell>
        <mxCell id="n76NYFAnikeCeqhVXUen-25" value="alternative" style="shape=umlFrame;whiteSpace=wrap;html=1;pointerEvents=0;" vertex="1" parent="1">
          <mxGeometry x="60" y="290" width="720" height="270" as="geometry" />
        </mxCell>
        <mxCell id="n76NYFAnikeCeqhVXUen-27" value="" style="endArrow=none;dashed=1;html=1;rounded=0;exitX=0.003;exitY=0.326;exitDx=0;exitDy=0;exitPerimeter=0;entryX=0.997;entryY=0.33;entryDx=0;entryDy=0;entryPerimeter=0;" edge="1" parent="1" source="n76NYFAnikeCeqhVXUen-25" target="n76NYFAnikeCeqhVXUen-25">
          <mxGeometry width="50" height="50" relative="1" as="geometry">
            <mxPoint x="400" y="320" as="sourcePoint" />
            <mxPoint x="450" y="270" as="targetPoint" />
          </mxGeometry>
        </mxCell>
        <mxCell id="n76NYFAnikeCeqhVXUen-28" value="user not found" style="text;html=1;align=center;verticalAlign=middle;resizable=0;points=[];autosize=1;strokeColor=none;fillColor=none;" vertex="1" parent="1">
          <mxGeometry x="50" y="330" width="100" height="30" as="geometry" />
        </mxCell>
        <mxCell id="n76NYFAnikeCeqhVXUen-29" value="user found" style="text;html=1;align=center;verticalAlign=middle;resizable=0;points=[];autosize=1;strokeColor=none;fillColor=none;" vertex="1" parent="1">
          <mxGeometry x="60" y="380" width="80" height="30" as="geometry" />
        </mxCell>
        <mxCell id="n76NYFAnikeCeqhVXUen-34" value="found user" style="html=1;verticalAlign=bottom;endArrow=open;dashed=1;endSize=8;curved=0;rounded=0;" edge="1" parent="1">
          <mxGeometry relative="1" as="geometry">
            <mxPoint x="720" y="402.5" as="sourcePoint" />
            <mxPoint x="500" y="403" as="targetPoint" />
          </mxGeometry>
        </mxCell>
        <mxCell id="n76NYFAnikeCeqhVXUen-35" value="invalid user" style="html=1;verticalAlign=bottom;endArrow=open;dashed=1;endSize=8;curved=0;rounded=0;" edge="1" parent="1">
          <mxGeometry relative="1" as="geometry">
            <mxPoint x="490" y="430" as="sourcePoint" />
            <mxPoint x="290" y="430" as="targetPoint" />
          </mxGeometry>
        </mxCell>
        <mxCell id="n76NYFAnikeCeqhVXUen-36" value="login fail" style="html=1;verticalAlign=bottom;endArrow=open;dashed=1;endSize=8;curved=0;rounded=0;" edge="1" parent="1">
          <mxGeometry relative="1" as="geometry">
            <mxPoint x="290" y="450" as="sourcePoint" />
            <mxPoint x="150" y="450" as="targetPoint" />
            <mxPoint as="offset" />
          </mxGeometry>
        </mxCell>
        <mxCell id="n76NYFAnikeCeqhVXUen-37" value="valid user&amp;nbsp;" style="html=1;verticalAlign=bottom;endArrow=open;dashed=1;endSize=8;curved=0;rounded=0;" edge="1" parent="1">
          <mxGeometry relative="1" as="geometry">
            <mxPoint x="495" y="500" as="sourcePoint" />
            <mxPoint x="285" y="500" as="targetPoint" />
          </mxGeometry>
        </mxCell>
        <mxCell id="n76NYFAnikeCeqhVXUen-38" value="login susscessfull&amp;nbsp;" style="html=1;verticalAlign=bottom;endArrow=open;dashed=1;endSize=8;curved=0;rounded=0;" edge="1" parent="1">
          <mxGeometry relative="1" as="geometry">
            <mxPoint x="290" y="520" as="sourcePoint" />
            <mxPoint x="150" y="520" as="targetPoint" />
            <Array as="points">
              <mxPoint x="230" y="520" />
            </Array>
            <mxPoint as="offset" />
          </mxGeometry>
        </mxCell>
        <mxCell id="n76NYFAnikeCeqhVXUen-40" value="alternative" style="shape=umlFrame;whiteSpace=wrap;html=1;pointerEvents=0;" vertex="1" parent="1">
          <mxGeometry x="70" y="410" width="480" height="128" as="geometry" />
        </mxCell>
        <mxCell id="n76NYFAnikeCeqhVXUen-41" value="" style="endArrow=none;dashed=1;html=1;rounded=0;" edge="1" parent="1">
          <mxGeometry width="50" height="50" relative="1" as="geometry">
            <mxPoint x="70" y="474" as="sourcePoint" />
            <mxPoint x="549" y="470" as="targetPoint" />
            <Array as="points">
              <mxPoint x="290" y="474" />
            </Array>
          </mxGeometry>
        </mxCell>
        <mxCell id="n76NYFAnikeCeqhVXUen-42" value="invalid user" style="text;html=1;align=center;verticalAlign=middle;resizable=0;points=[];autosize=1;strokeColor=none;fillColor=none;" vertex="1" parent="1">
          <mxGeometry x="70" y="440" width="80" height="30" as="geometry" />
        </mxCell>
        <mxCell id="n76NYFAnikeCeqhVXUen-43" value="valid user" style="text;html=1;align=center;verticalAlign=middle;resizable=0;points=[];autosize=1;strokeColor=none;fillColor=none;" vertex="1" parent="1">
          <mxGeometry x="70" y="488" width="70" height="30" as="geometry" />
        </mxCell>
        <mxCell id="n76NYFAnikeCeqhVXUen-44" value="" style="endArrow=none;dashed=1;html=1;dashPattern=1 3;strokeWidth=2;rounded=0;" edge="1" parent="1">
          <mxGeometry width="50" height="50" relative="1" as="geometry">
            <mxPoint x="400" y="280" as="sourcePoint" />
            <mxPoint x="400" y="140" as="targetPoint" />
          </mxGeometry>
        </mxCell>
        <mxCell id="n76NYFAnikeCeqhVXUen-45" value="" style="endArrow=classic;html=1;rounded=0;" edge="1" parent="1">
          <mxGeometry width="50" height="50" relative="1" as="geometry">
            <mxPoint x="290" y="160" as="sourcePoint" />
            <mxPoint x="380" y="160" as="targetPoint" />
          </mxGeometry>
        </mxCell>
        <mxCell id="n76NYFAnikeCeqhVXUen-46" value="check input" style="text;html=1;align=center;verticalAlign=middle;resizable=0;points=[];autosize=1;strokeColor=none;fillColor=none;" vertex="1" parent="1">
          <mxGeometry x="300" y="130" width="80" height="30" as="geometry" />
        </mxCell>
        <mxCell id="n76NYFAnikeCeqhVXUen-53" value="Uncorrect /not input" style="html=1;verticalAlign=bottom;endArrow=open;dashed=1;endSize=8;curved=0;rounded=0;" edge="1" parent="1">
          <mxGeometry relative="1" as="geometry">
            <mxPoint x="390" y="190" as="sourcePoint" />
            <mxPoint x="290" y="190" as="targetPoint" />
            <mxPoint as="offset" />
          </mxGeometry>
        </mxCell>
        <mxCell id="n76NYFAnikeCeqhVXUen-54" value="please fill in" style="html=1;verticalAlign=bottom;endArrow=open;dashed=1;endSize=8;curved=0;rounded=0;" edge="1" parent="1">
          <mxGeometry relative="1" as="geometry">
            <mxPoint x="280" y="200" as="sourcePoint" />
            <mxPoint x="150" y="200" as="targetPoint" />
            <mxPoint as="offset" />
          </mxGeometry>
        </mxCell>
        <mxCell id="n76NYFAnikeCeqhVXUen-57" value="alternative&lt;div&gt;&lt;br&gt;&lt;/div&gt;" style="shape=umlFrame;whiteSpace=wrap;html=1;pointerEvents=0;" vertex="1" parent="1">
          <mxGeometry x="60" y="170" width="720" height="110" as="geometry" />
        </mxCell>
        <mxCell id="n76NYFAnikeCeqhVXUen-58" value="" style="endArrow=none;dashed=1;html=1;rounded=0;exitX=-0.003;exitY=0.545;exitDx=0;exitDy=0;exitPerimeter=0;entryX=0.999;entryY=0.518;entryDx=0;entryDy=0;entryPerimeter=0;" edge="1" parent="1" source="n76NYFAnikeCeqhVXUen-57" target="n76NYFAnikeCeqhVXUen-57">
          <mxGeometry width="50" height="50" relative="1" as="geometry">
            <mxPoint x="390" y="320" as="sourcePoint" />
            <mxPoint x="440" y="270" as="targetPoint" />
          </mxGeometry>
        </mxCell>
        <mxCell id="n76NYFAnikeCeqhVXUen-59" value="uncorrect input" style="text;html=1;align=center;verticalAlign=middle;resizable=0;points=[];autosize=1;strokeColor=none;fillColor=none;" vertex="1" parent="1">
          <mxGeometry x="50" y="198" width="100" height="30" as="geometry" />
        </mxCell>
        <mxCell id="n76NYFAnikeCeqhVXUen-60" value="correct input" style="text;html=1;align=center;verticalAlign=middle;resizable=0;points=[];autosize=1;strokeColor=none;fillColor=none;" vertex="1" parent="1">
          <mxGeometry x="55" y="238" width="90" height="30" as="geometry" />
        </mxCell>
        <mxCell id="n76NYFAnikeCeqhVXUen-64" value="Actor" style="shape=umlActor;verticalLabelPosition=bottom;verticalAlign=top;html=1;" vertex="1" parent="1">
          <mxGeometry x="145" y="680" width="30" height="60" as="geometry" />
        </mxCell>
        <mxCell id="n76NYFAnikeCeqhVXUen-65" value="Service" style="html=1;whiteSpace=wrap;" vertex="1" parent="1">
          <mxGeometry x="465" y="690" width="110" height="50" as="geometry" />
        </mxCell>
        <mxCell id="n76NYFAnikeCeqhVXUen-66" value="Controller" style="html=1;whiteSpace=wrap;" vertex="1" parent="1">
          <mxGeometry x="255" y="690" width="110" height="50" as="geometry" />
        </mxCell>
        <mxCell id="n76NYFAnikeCeqhVXUen-67" value="Database" style="html=1;whiteSpace=wrap;" vertex="1" parent="1">
          <mxGeometry x="685" y="685" width="110" height="50" as="geometry" />
        </mxCell>
        <mxCell id="n76NYFAnikeCeqhVXUen-68" value="" style="endArrow=none;dashed=1;html=1;dashPattern=1 3;strokeWidth=2;rounded=0;exitX=0.115;exitY=1.003;exitDx=0;exitDy=0;exitPerimeter=0;" edge="1" parent="1" source="n76NYFAnikeCeqhVXUen-83">
          <mxGeometry width="50" height="50" relative="1" as="geometry">
            <mxPoint x="165" y="1200" as="sourcePoint" />
            <mxPoint x="165" y="770" as="targetPoint" />
            <Array as="points">
              <mxPoint x="165" y="890" />
            </Array>
          </mxGeometry>
        </mxCell>
        <mxCell id="n76NYFAnikeCeqhVXUen-69" value="" style="endArrow=none;dashed=1;html=1;dashPattern=1 3;strokeWidth=2;rounded=0;exitX=0.314;exitY=1.01;exitDx=0;exitDy=0;exitPerimeter=0;" edge="1" parent="1" source="n76NYFAnikeCeqhVXUen-83">
          <mxGeometry width="50" height="50" relative="1" as="geometry">
            <mxPoint x="305" y="1190" as="sourcePoint" />
            <mxPoint x="305" y="770" as="targetPoint" />
          </mxGeometry>
        </mxCell>
        <mxCell id="n76NYFAnikeCeqhVXUen-70" value="" style="endArrow=none;dashed=1;html=1;dashPattern=1 3;strokeWidth=2;rounded=0;exitX=0.611;exitY=1.008;exitDx=0;exitDy=0;exitPerimeter=0;" edge="1" parent="1" source="n76NYFAnikeCeqhVXUen-83">
          <mxGeometry width="50" height="50" relative="1" as="geometry">
            <mxPoint x="515" y="1190" as="sourcePoint" />
            <mxPoint x="515" y="760" as="targetPoint" />
          </mxGeometry>
        </mxCell>
        <mxCell id="n76NYFAnikeCeqhVXUen-71" value="" style="endArrow=none;dashed=1;html=1;dashPattern=1 3;strokeWidth=2;rounded=0;" edge="1" parent="1">
          <mxGeometry width="50" height="50" relative="1" as="geometry">
            <mxPoint x="740" y="1330" as="sourcePoint" />
            <mxPoint x="735" y="750" as="targetPoint" />
          </mxGeometry>
        </mxCell>
        <mxCell id="n76NYFAnikeCeqhVXUen-72" value="Register" style="text;html=1;align=center;verticalAlign=middle;whiteSpace=wrap;rounded=0;" vertex="1" parent="1">
          <mxGeometry x="45" y="660" width="60" height="30" as="geometry" />
        </mxCell>
        <mxCell id="n76NYFAnikeCeqhVXUen-73" value="" style="endArrow=classic;html=1;rounded=0;" edge="1" parent="1">
          <mxGeometry width="50" height="50" relative="1" as="geometry">
            <mxPoint x="175" y="780" as="sourcePoint" />
            <mxPoint x="295" y="780" as="targetPoint" />
          </mxGeometry>
        </mxCell>
        <mxCell id="n76NYFAnikeCeqhVXUen-74" value="register request" style="text;html=1;align=center;verticalAlign=middle;resizable=0;points=[];autosize=1;strokeColor=none;fillColor=none;" vertex="1" parent="1">
          <mxGeometry x="180" y="748" width="110" height="30" as="geometry" />
        </mxCell>
        <mxCell id="n76NYFAnikeCeqhVXUen-75" value="" style="endArrow=classic;html=1;rounded=0;" edge="1" parent="1">
          <mxGeometry width="50" height="50" relative="1" as="geometry">
            <mxPoint x="415" y="890" as="sourcePoint" />
            <mxPoint x="514" y="890" as="targetPoint" />
            <Array as="points">
              <mxPoint x="475" y="890" />
            </Array>
          </mxGeometry>
        </mxCell>
        <mxCell id="n76NYFAnikeCeqhVXUen-76" value="call register function" style="text;html=1;align=center;verticalAlign=middle;resizable=0;points=[];autosize=1;strokeColor=none;fillColor=none;" vertex="1" parent="1">
          <mxGeometry x="400" y="860" width="130" height="30" as="geometry" />
        </mxCell>
        <mxCell id="n76NYFAnikeCeqhVXUen-77" value="" style="endArrow=classic;html=1;rounded=0;" edge="1" parent="1">
          <mxGeometry width="50" height="50" relative="1" as="geometry">
            <mxPoint x="525" y="900" as="sourcePoint" />
            <mxPoint x="725" y="900" as="targetPoint" />
          </mxGeometry>
        </mxCell>
        <mxCell id="n76NYFAnikeCeqhVXUen-78" value="check exist of username and pasword" style="text;html=1;align=center;verticalAlign=middle;resizable=0;points=[];autosize=1;strokeColor=none;fillColor=none;" vertex="1" parent="1">
          <mxGeometry x="520" y="870" width="220" height="30" as="geometry" />
        </mxCell>
        <mxCell id="n76NYFAnikeCeqhVXUen-79" value="" style="html=1;verticalAlign=bottom;endArrow=open;dashed=1;endSize=8;curved=0;rounded=0;" edge="1" parent="1">
          <mxGeometry relative="1" as="geometry">
            <mxPoint x="735" y="940" as="sourcePoint" />
            <mxPoint x="525" y="940" as="targetPoint" />
          </mxGeometry>
        </mxCell>
        <mxCell id="n76NYFAnikeCeqhVXUen-81" value="username or email exist&amp;nbsp;" style="html=1;verticalAlign=bottom;endArrow=open;dashed=1;endSize=8;curved=0;rounded=0;" edge="1" parent="1">
          <mxGeometry x="-0.0769" relative="1" as="geometry">
            <mxPoint x="295" y="970" as="sourcePoint" />
            <mxPoint x="165" y="970" as="targetPoint" />
            <mxPoint as="offset" />
          </mxGeometry>
        </mxCell>
        <mxCell id="n76NYFAnikeCeqhVXUen-82" value="username or email existed" style="html=1;verticalAlign=bottom;endArrow=open;dashed=1;endSize=8;curved=0;rounded=0;" edge="1" parent="1">
          <mxGeometry relative="1" as="geometry">
            <mxPoint x="515" y="950" as="sourcePoint" />
            <mxPoint x="305" y="950" as="targetPoint" />
          </mxGeometry>
        </mxCell>
        <mxCell id="n76NYFAnikeCeqhVXUen-83" value="alternative" style="shape=umlFrame;whiteSpace=wrap;html=1;pointerEvents=0;" vertex="1" parent="1">
          <mxGeometry x="75" y="920" width="720" height="400" as="geometry" />
        </mxCell>
        <mxCell id="n76NYFAnikeCeqhVXUen-84" value="" style="endArrow=none;dashed=1;html=1;rounded=0;exitX=0.006;exitY=0.21;exitDx=0;exitDy=0;exitPerimeter=0;entryX=0.996;entryY=0.208;entryDx=0;entryDy=0;entryPerimeter=0;" edge="1" parent="1" source="n76NYFAnikeCeqhVXUen-83" target="n76NYFAnikeCeqhVXUen-83">
          <mxGeometry width="50" height="50" relative="1" as="geometry">
            <mxPoint x="415" y="950" as="sourcePoint" />
            <mxPoint x="465" y="900" as="targetPoint" />
          </mxGeometry>
        </mxCell>
        <mxCell id="n76NYFAnikeCeqhVXUen-85" value="existed&amp;nbsp;" style="text;html=1;align=center;verticalAlign=middle;resizable=0;points=[];autosize=1;strokeColor=none;fillColor=none;" vertex="1" parent="1">
          <mxGeometry x="85" y="960" width="60" height="30" as="geometry" />
        </mxCell>
        <mxCell id="n76NYFAnikeCeqhVXUen-86" value="unexisted" style="text;html=1;align=center;verticalAlign=middle;resizable=0;points=[];autosize=1;strokeColor=none;fillColor=none;" vertex="1" parent="1">
          <mxGeometry x="80" y="1040" width="70" height="30" as="geometry" />
        </mxCell>
        <mxCell id="n76NYFAnikeCeqhVXUen-87" value="not exist" style="html=1;verticalAlign=bottom;endArrow=open;dashed=1;endSize=8;curved=0;rounded=0;" edge="1" parent="1">
          <mxGeometry relative="1" as="geometry">
            <mxPoint x="735" y="1032.5" as="sourcePoint" />
            <mxPoint x="515" y="1033" as="targetPoint" />
          </mxGeometry>
        </mxCell>
        <mxCell id="n76NYFAnikeCeqhVXUen-96" value="" style="endArrow=none;dashed=1;html=1;dashPattern=1 3;strokeWidth=2;rounded=0;" edge="1" parent="1">
          <mxGeometry width="50" height="50" relative="1" as="geometry">
            <mxPoint x="415" y="910" as="sourcePoint" />
            <mxPoint x="415" y="770" as="targetPoint" />
          </mxGeometry>
        </mxCell>
        <mxCell id="n76NYFAnikeCeqhVXUen-97" value="" style="endArrow=classic;html=1;rounded=0;" edge="1" parent="1">
          <mxGeometry width="50" height="50" relative="1" as="geometry">
            <mxPoint x="305" y="790" as="sourcePoint" />
            <mxPoint x="395" y="790" as="targetPoint" />
          </mxGeometry>
        </mxCell>
        <mxCell id="n76NYFAnikeCeqhVXUen-98" value="check input" style="text;html=1;align=center;verticalAlign=middle;resizable=0;points=[];autosize=1;strokeColor=none;fillColor=none;" vertex="1" parent="1">
          <mxGeometry x="315" y="760" width="80" height="30" as="geometry" />
        </mxCell>
        <mxCell id="n76NYFAnikeCeqhVXUen-99" value="Uncorrect /not input" style="html=1;verticalAlign=bottom;endArrow=open;dashed=1;endSize=8;curved=0;rounded=0;" edge="1" parent="1">
          <mxGeometry relative="1" as="geometry">
            <mxPoint x="405" y="820" as="sourcePoint" />
            <mxPoint x="305" y="820" as="targetPoint" />
            <mxPoint as="offset" />
          </mxGeometry>
        </mxCell>
        <mxCell id="n76NYFAnikeCeqhVXUen-100" value="please fill in" style="html=1;verticalAlign=bottom;endArrow=open;dashed=1;endSize=8;curved=0;rounded=0;" edge="1" parent="1">
          <mxGeometry relative="1" as="geometry">
            <mxPoint x="295" y="830" as="sourcePoint" />
            <mxPoint x="165" y="830" as="targetPoint" />
            <mxPoint as="offset" />
          </mxGeometry>
        </mxCell>
        <mxCell id="n76NYFAnikeCeqhVXUen-101" value="alternative&lt;div&gt;&lt;br&gt;&lt;/div&gt;" style="shape=umlFrame;whiteSpace=wrap;html=1;pointerEvents=0;" vertex="1" parent="1">
          <mxGeometry x="75" y="800" width="720" height="110" as="geometry" />
        </mxCell>
        <mxCell id="n76NYFAnikeCeqhVXUen-102" value="" style="endArrow=none;dashed=1;html=1;rounded=0;exitX=-0.003;exitY=0.545;exitDx=0;exitDy=0;exitPerimeter=0;entryX=0.999;entryY=0.518;entryDx=0;entryDy=0;entryPerimeter=0;" edge="1" parent="1" source="n76NYFAnikeCeqhVXUen-101" target="n76NYFAnikeCeqhVXUen-101">
          <mxGeometry width="50" height="50" relative="1" as="geometry">
            <mxPoint x="405" y="950" as="sourcePoint" />
            <mxPoint x="455" y="900" as="targetPoint" />
          </mxGeometry>
        </mxCell>
        <mxCell id="n76NYFAnikeCeqhVXUen-103" value="uncorrect input" style="text;html=1;align=center;verticalAlign=middle;resizable=0;points=[];autosize=1;strokeColor=none;fillColor=none;" vertex="1" parent="1">
          <mxGeometry x="65" y="828" width="100" height="30" as="geometry" />
        </mxCell>
        <mxCell id="n76NYFAnikeCeqhVXUen-104" value="correct input" style="text;html=1;align=center;verticalAlign=middle;resizable=0;points=[];autosize=1;strokeColor=none;fillColor=none;" vertex="1" parent="1">
          <mxGeometry x="70" y="868" width="90" height="30" as="geometry" />
        </mxCell>
        <mxCell id="n76NYFAnikeCeqhVXUen-107" value="username or email existed" style="text;html=1;align=center;verticalAlign=middle;resizable=0;points=[];autosize=1;strokeColor=none;fillColor=none;" vertex="1" parent="1">
          <mxGeometry x="545" y="920" width="160" height="30" as="geometry" />
        </mxCell>
        <mxCell id="n76NYFAnikeCeqhVXUen-108" value="register fail" style="text;html=1;align=center;verticalAlign=middle;resizable=0;points=[];autosize=1;strokeColor=none;fillColor=none;" vertex="1" parent="1">
          <mxGeometry x="180" y="968" width="80" height="30" as="geometry" />
        </mxCell>
        <mxCell id="n76NYFAnikeCeqhVXUen-110" value="" style="endArrow=classic;html=1;rounded=0;" edge="1" parent="1">
          <mxGeometry width="50" height="50" relative="1" as="geometry">
            <mxPoint x="510" y="1070" as="sourcePoint" />
            <mxPoint x="730" y="1070" as="targetPoint" />
          </mxGeometry>
        </mxCell>
        <mxCell id="n76NYFAnikeCeqhVXUen-111" value="insert new user" style="text;html=1;align=center;verticalAlign=middle;resizable=0;points=[];autosize=1;strokeColor=none;fillColor=none;" vertex="1" parent="1">
          <mxGeometry x="580" y="1048" width="100" height="30" as="geometry" />
        </mxCell>
        <mxCell id="n76NYFAnikeCeqhVXUen-114" value="insert succesfull" style="html=1;verticalAlign=bottom;endArrow=open;dashed=1;endSize=8;curved=0;rounded=0;" edge="1" parent="1">
          <mxGeometry relative="1" as="geometry">
            <mxPoint x="730" y="1140" as="sourcePoint" />
            <mxPoint x="510" y="1140.5" as="targetPoint" />
          </mxGeometry>
        </mxCell>
        <mxCell id="n76NYFAnikeCeqhVXUen-115" value="&amp;nbsp;insert succesfull" style="html=1;verticalAlign=bottom;endArrow=open;dashed=1;endSize=8;curved=0;rounded=0;" edge="1" parent="1">
          <mxGeometry relative="1" as="geometry">
            <mxPoint x="510" y="1180" as="sourcePoint" />
            <mxPoint x="305" y="1180.5" as="targetPoint" />
            <mxPoint as="offset" />
          </mxGeometry>
        </mxCell>
        <mxCell id="n76NYFAnikeCeqhVXUen-116" value="&amp;nbsp;register succesfull" style="html=1;verticalAlign=bottom;endArrow=open;dashed=1;endSize=8;curved=0;rounded=0;" edge="1" parent="1">
          <mxGeometry relative="1" as="geometry">
            <mxPoint x="300" y="1210" as="sourcePoint" />
            <mxPoint x="160" y="1211" as="targetPoint" />
            <mxPoint as="offset" />
          </mxGeometry>
        </mxCell>
        <mxCell id="n76NYFAnikeCeqhVXUen-196" value="Actor" style="shape=umlActor;verticalLabelPosition=bottom;verticalAlign=top;html=1;" vertex="1" parent="1">
          <mxGeometry x="165" y="1450" width="30" height="60" as="geometry" />
        </mxCell>
        <mxCell id="n76NYFAnikeCeqhVXUen-197" value="Service" style="html=1;whiteSpace=wrap;" vertex="1" parent="1">
          <mxGeometry x="485" y="1460" width="110" height="50" as="geometry" />
        </mxCell>
        <mxCell id="n76NYFAnikeCeqhVXUen-198" value="Controller" style="html=1;whiteSpace=wrap;" vertex="1" parent="1">
          <mxGeometry x="275" y="1460" width="110" height="50" as="geometry" />
        </mxCell>
        <mxCell id="n76NYFAnikeCeqhVXUen-199" value="Database" style="html=1;whiteSpace=wrap;" vertex="1" parent="1">
          <mxGeometry x="705" y="1455" width="110" height="50" as="geometry" />
        </mxCell>
        <mxCell id="n76NYFAnikeCeqhVXUen-200" value="" style="endArrow=none;dashed=1;html=1;dashPattern=1 3;strokeWidth=2;rounded=0;" edge="1" parent="1">
          <mxGeometry width="50" height="50" relative="1" as="geometry">
            <mxPoint x="190" y="2153" as="sourcePoint" />
            <mxPoint x="185" y="1540" as="targetPoint" />
            <Array as="points">
              <mxPoint x="185" y="1660" />
            </Array>
          </mxGeometry>
        </mxCell>
        <mxCell id="n76NYFAnikeCeqhVXUen-201" value="" style="endArrow=none;dashed=1;html=1;dashPattern=1 3;strokeWidth=2;rounded=0;exitX=0.315;exitY=1;exitDx=0;exitDy=0;exitPerimeter=0;" edge="1" parent="1" source="n76NYFAnikeCeqhVXUen-224">
          <mxGeometry width="50" height="50" relative="1" as="geometry">
            <mxPoint x="321.0799999999999" y="2091.6" as="sourcePoint" />
            <mxPoint x="325" y="1540" as="targetPoint" />
          </mxGeometry>
        </mxCell>
        <mxCell id="n76NYFAnikeCeqhVXUen-202" value="" style="endArrow=none;dashed=1;html=1;dashPattern=1 3;strokeWidth=2;rounded=0;exitX=0.611;exitY=1.017;exitDx=0;exitDy=0;exitPerimeter=0;" edge="1" parent="1" source="n76NYFAnikeCeqhVXUen-224">
          <mxGeometry width="50" height="50" relative="1" as="geometry">
            <mxPoint x="534.9200000000001" y="2091.28" as="sourcePoint" />
            <mxPoint x="535" y="1530" as="targetPoint" />
          </mxGeometry>
        </mxCell>
        <mxCell id="n76NYFAnikeCeqhVXUen-203" value="" style="endArrow=none;dashed=1;html=1;dashPattern=1 3;strokeWidth=2;rounded=0;exitX=0.922;exitY=1.003;exitDx=0;exitDy=0;exitPerimeter=0;" edge="1" parent="1" source="n76NYFAnikeCeqhVXUen-224">
          <mxGeometry width="50" height="50" relative="1" as="geometry">
            <mxPoint x="760" y="2100" as="sourcePoint" />
            <mxPoint x="755" y="1520" as="targetPoint" />
          </mxGeometry>
        </mxCell>
        <mxCell id="n76NYFAnikeCeqhVXUen-204" value="Create And Save CV" style="text;html=1;align=center;verticalAlign=middle;whiteSpace=wrap;rounded=0;" vertex="1" parent="1">
          <mxGeometry x="30" y="1430" width="140" height="30" as="geometry" />
        </mxCell>
        <mxCell id="n76NYFAnikeCeqhVXUen-205" value="" style="endArrow=classic;html=1;rounded=0;" edge="1" parent="1">
          <mxGeometry width="50" height="50" relative="1" as="geometry">
            <mxPoint x="195" y="1550" as="sourcePoint" />
            <mxPoint x="315" y="1550" as="targetPoint" />
          </mxGeometry>
        </mxCell>
        <mxCell id="n76NYFAnikeCeqhVXUen-206" value="Create CV request" style="text;html=1;align=center;verticalAlign=middle;resizable=0;points=[];autosize=1;strokeColor=none;fillColor=none;" vertex="1" parent="1">
          <mxGeometry x="195" y="1518" width="120" height="30" as="geometry" />
        </mxCell>
        <mxCell id="n76NYFAnikeCeqhVXUen-207" value="" style="endArrow=classic;html=1;rounded=0;" edge="1" parent="1">
          <mxGeometry width="50" height="50" relative="1" as="geometry">
            <mxPoint x="435.5" y="1770" as="sourcePoint" />
            <mxPoint x="534.5" y="1770" as="targetPoint" />
            <Array as="points">
              <mxPoint x="495.5" y="1770" />
            </Array>
          </mxGeometry>
        </mxCell>
        <mxCell id="n76NYFAnikeCeqhVXUen-208" value="call&amp;nbsp;&lt;div&gt;Create CV function&lt;/div&gt;" style="text;html=1;align=center;verticalAlign=middle;resizable=0;points=[];autosize=1;strokeColor=none;fillColor=none;" vertex="1" parent="1">
          <mxGeometry x="425" y="1730" width="120" height="40" as="geometry" />
        </mxCell>
        <mxCell id="n76NYFAnikeCeqhVXUen-219" value="" style="endArrow=none;dashed=1;html=1;dashPattern=1 3;strokeWidth=2;rounded=0;" edge="1" parent="1">
          <mxGeometry width="50" height="50" relative="1" as="geometry">
            <mxPoint x="430" y="1780" as="sourcePoint" />
            <mxPoint x="430" y="1550" as="targetPoint" />
          </mxGeometry>
        </mxCell>
        <mxCell id="n76NYFAnikeCeqhVXUen-220" value="" style="endArrow=classic;html=1;rounded=0;" edge="1" parent="1">
          <mxGeometry width="50" height="50" relative="1" as="geometry">
            <mxPoint x="325" y="1560" as="sourcePoint" />
            <mxPoint x="415" y="1560" as="targetPoint" />
          </mxGeometry>
        </mxCell>
        <mxCell id="n76NYFAnikeCeqhVXUen-221" value="check input" style="text;html=1;align=center;verticalAlign=middle;resizable=0;points=[];autosize=1;strokeColor=none;fillColor=none;" vertex="1" parent="1">
          <mxGeometry x="335" y="1530" width="80" height="30" as="geometry" />
        </mxCell>
        <mxCell id="n76NYFAnikeCeqhVXUen-222" value="Uncorrect /not input" style="html=1;verticalAlign=bottom;endArrow=open;dashed=1;endSize=8;curved=0;rounded=0;" edge="1" parent="1">
          <mxGeometry relative="1" as="geometry">
            <mxPoint x="425" y="1612.5" as="sourcePoint" />
            <mxPoint x="325" y="1612.5" as="targetPoint" />
            <mxPoint as="offset" />
          </mxGeometry>
        </mxCell>
        <mxCell id="n76NYFAnikeCeqhVXUen-223" value="please fill in&amp;nbsp;" style="html=1;verticalAlign=bottom;endArrow=open;dashed=1;endSize=8;curved=0;rounded=0;" edge="1" parent="1">
          <mxGeometry relative="1" as="geometry">
            <mxPoint x="320" y="1638" as="sourcePoint" />
            <mxPoint x="190" y="1638" as="targetPoint" />
            <mxPoint as="offset" />
          </mxGeometry>
        </mxCell>
        <mxCell id="n76NYFAnikeCeqhVXUen-224" value="alternative&lt;div&gt;&lt;br&gt;&lt;/div&gt;" style="shape=umlFrame;whiteSpace=wrap;html=1;pointerEvents=0;" vertex="1" parent="1">
          <mxGeometry x="95" y="1570" width="720" height="580" as="geometry" />
        </mxCell>
        <mxCell id="n76NYFAnikeCeqhVXUen-225" value="" style="endArrow=none;dashed=1;html=1;rounded=0;exitX=0.004;exitY=0.217;exitDx=0;exitDy=0;exitPerimeter=0;" edge="1" parent="1" source="n76NYFAnikeCeqhVXUen-224">
          <mxGeometry width="50" height="50" relative="1" as="geometry">
            <mxPoint x="425" y="1720" as="sourcePoint" />
            <mxPoint x="816" y="1700" as="targetPoint" />
          </mxGeometry>
        </mxCell>
        <mxCell id="n76NYFAnikeCeqhVXUen-226" value="uncorrect input" style="text;html=1;align=center;verticalAlign=middle;resizable=0;points=[];autosize=1;strokeColor=none;fillColor=none;" vertex="1" parent="1">
          <mxGeometry x="85" y="1598" width="100" height="30" as="geometry" />
        </mxCell>
        <mxCell id="n76NYFAnikeCeqhVXUen-227" value="correct input" style="text;html=1;align=center;verticalAlign=middle;resizable=0;points=[];autosize=1;strokeColor=none;fillColor=none;" vertex="1" parent="1">
          <mxGeometry x="90" y="1740" width="90" height="30" as="geometry" />
        </mxCell>
        <mxCell id="n76NYFAnikeCeqhVXUen-237" value="or uncorrect iinput" style="text;html=1;align=center;verticalAlign=middle;resizable=0;points=[];autosize=1;strokeColor=none;fillColor=none;" vertex="1" parent="1">
          <mxGeometry x="195" y="1638" width="120" height="30" as="geometry" />
        </mxCell>
        <mxCell id="n76NYFAnikeCeqhVXUen-240" value="Create Form CV" style="html=1;verticalAlign=bottom;endArrow=open;dashed=1;endSize=8;curved=0;rounded=0;" edge="1" parent="1">
          <mxGeometry x="-0.0123" relative="1" as="geometry">
            <mxPoint x="530" y="1840" as="sourcePoint" />
            <mxPoint x="324" y="1840" as="targetPoint" />
            <mxPoint as="offset" />
          </mxGeometry>
        </mxCell>
        <mxCell id="n76NYFAnikeCeqhVXUen-244" value="" style="endArrow=classic;html=1;rounded=0;" edge="1" parent="1">
          <mxGeometry width="50" height="50" relative="1" as="geometry">
            <mxPoint x="540" y="1790" as="sourcePoint" />
            <mxPoint x="760" y="1790" as="targetPoint" />
          </mxGeometry>
        </mxCell>
        <mxCell id="n76NYFAnikeCeqhVXUen-245" value="select CV sample form &#39;s code" style="text;html=1;align=center;verticalAlign=middle;resizable=0;points=[];autosize=1;strokeColor=none;fillColor=none;" vertex="1" parent="1">
          <mxGeometry x="550" y="1758" width="190" height="30" as="geometry" />
        </mxCell>
        <mxCell id="n76NYFAnikeCeqhVXUen-247" value="return CV sample form&#39;s code" style="html=1;verticalAlign=bottom;endArrow=open;dashed=1;endSize=8;curved=0;rounded=0;" edge="1" parent="1">
          <mxGeometry x="-0.0123" relative="1" as="geometry">
            <mxPoint x="752.5" y="1820" as="sourcePoint" />
            <mxPoint x="540" y="1820" as="targetPoint" />
            <mxPoint as="offset" />
          </mxGeometry>
        </mxCell>
        <mxCell id="n76NYFAnikeCeqhVXUen-248" value="Create CV succes full&amp;nbsp;" style="html=1;verticalAlign=bottom;endArrow=open;dashed=1;endSize=8;curved=0;rounded=0;" edge="1" parent="1">
          <mxGeometry relative="1" as="geometry">
            <mxPoint x="320" y="1860" as="sourcePoint" />
            <mxPoint x="190" y="1860" as="targetPoint" />
            <mxPoint as="offset" />
          </mxGeometry>
        </mxCell>
        <mxCell id="n76NYFAnikeCeqhVXUen-249" value="" style="endArrow=classic;html=1;rounded=0;" edge="1" parent="1">
          <mxGeometry width="50" height="50" relative="1" as="geometry">
            <mxPoint x="190" y="1940" as="sourcePoint" />
            <mxPoint x="320" y="1940" as="targetPoint" />
          </mxGeometry>
        </mxCell>
        <mxCell id="n76NYFAnikeCeqhVXUen-251" value="Save CV request" style="text;html=1;align=center;verticalAlign=middle;resizable=0;points=[];autosize=1;strokeColor=none;fillColor=none;" vertex="1" parent="1">
          <mxGeometry x="195" y="1908" width="110" height="30" as="geometry" />
        </mxCell>
        <mxCell id="n76NYFAnikeCeqhVXUen-252" value="" style="endArrow=classic;html=1;rounded=0;" edge="1" parent="1">
          <mxGeometry width="50" height="50" relative="1" as="geometry">
            <mxPoint x="320" y="1960" as="sourcePoint" />
            <mxPoint x="540" y="1960" as="targetPoint" />
          </mxGeometry>
        </mxCell>
        <mxCell id="n76NYFAnikeCeqhVXUen-253" value="call save CV function" style="text;html=1;align=center;verticalAlign=middle;resizable=0;points=[];autosize=1;strokeColor=none;fillColor=none;" vertex="1" parent="1">
          <mxGeometry x="365" y="1928" width="140" height="30" as="geometry" />
        </mxCell>
        <mxCell id="n76NYFAnikeCeqhVXUen-254" value="" style="endArrow=classic;html=1;rounded=0;" edge="1" parent="1">
          <mxGeometry width="50" height="50" relative="1" as="geometry">
            <mxPoint x="540" y="2000" as="sourcePoint" />
            <mxPoint x="760" y="2000" as="targetPoint" />
          </mxGeometry>
        </mxCell>
        <mxCell id="n76NYFAnikeCeqhVXUen-255" value="Insert new CV" style="text;html=1;align=center;verticalAlign=middle;resizable=0;points=[];autosize=1;strokeColor=none;fillColor=none;" vertex="1" parent="1">
          <mxGeometry x="580" y="1968" width="100" height="30" as="geometry" />
        </mxCell>
        <mxCell id="n76NYFAnikeCeqhVXUen-257" value="insert successfull" style="html=1;verticalAlign=bottom;endArrow=open;dashed=1;endSize=8;curved=0;rounded=0;" edge="1" parent="1">
          <mxGeometry x="-0.0123" relative="1" as="geometry">
            <mxPoint x="751.25" y="2040" as="sourcePoint" />
            <mxPoint x="538.75" y="2040" as="targetPoint" />
            <mxPoint as="offset" />
          </mxGeometry>
        </mxCell>
        <mxCell id="n76NYFAnikeCeqhVXUen-258" value="save succesfull" style="html=1;verticalAlign=bottom;endArrow=open;dashed=1;endSize=8;curved=0;rounded=0;" edge="1" parent="1">
          <mxGeometry x="-0.0123" relative="1" as="geometry">
            <mxPoint x="530" y="2070" as="sourcePoint" />
            <mxPoint x="317.5" y="2070" as="targetPoint" />
            <mxPoint as="offset" />
          </mxGeometry>
        </mxCell>
        <mxCell id="n76NYFAnikeCeqhVXUen-259" value="save succesfull" style="html=1;verticalAlign=bottom;endArrow=open;dashed=1;endSize=8;curved=0;rounded=0;" edge="1" parent="1">
          <mxGeometry x="-0.0123" relative="1" as="geometry">
            <mxPoint x="321.25" y="2090" as="sourcePoint" />
            <mxPoint x="188.75" y="2090" as="targetPoint" />
            <mxPoint as="offset" />
          </mxGeometry>
        </mxCell>
      </root>
    </mxGraphModel>
  </diagram>
</mxfile>
